<mxfile host="app.diagrams.net" modified="2023-06-22T04:20:23.498Z" agent="Mozilla/5.0 (Windows NT 10.0; Win64; x64) AppleWebKit/537.36 (KHTML, like Gecko) Chrome/114.0.0.0 Safari/537.36 Edg/114.0.1823.51" etag="jpASzs30d74zZHZtzDeW" version="21.5.0" type="device">
  <diagram name="Page-1" id="3_-ymSQPVfvAD5IqCz7X">
    <mxGraphModel dx="2445" dy="907" grid="1" gridSize="10" guides="1" tooltips="1" connect="1" arrows="1" fold="1" page="1" pageScale="1" pageWidth="827" pageHeight="1169" math="0" shadow="0">
      <root>
        <mxCell id="0" />
        <mxCell id="1" parent="0" />
        <mxCell id="dnKV-0oxVniuHY-d9d20-1" value="username" style="ellipse;whiteSpace=wrap;html=1;" vertex="1" parent="1">
          <mxGeometry x="-90" y="170" width="120" height="80" as="geometry" />
        </mxCell>
        <mxCell id="dnKV-0oxVniuHY-d9d20-22" style="rounded=0;orthogonalLoop=1;jettySize=auto;html=1;exitX=0.75;exitY=0;exitDx=0;exitDy=0;endArrow=none;endFill=0;" edge="1" parent="1" source="dnKV-0oxVniuHY-d9d20-2" target="dnKV-0oxVniuHY-d9d20-1">
          <mxGeometry relative="1" as="geometry" />
        </mxCell>
        <mxCell id="dnKV-0oxVniuHY-d9d20-23" style="rounded=0;orthogonalLoop=1;jettySize=auto;html=1;exitX=0.25;exitY=0;exitDx=0;exitDy=0;endArrow=none;endFill=0;" edge="1" parent="1" source="dnKV-0oxVniuHY-d9d20-2" target="dnKV-0oxVniuHY-d9d20-21">
          <mxGeometry relative="1" as="geometry" />
        </mxCell>
        <mxCell id="dnKV-0oxVniuHY-d9d20-25" style="rounded=0;orthogonalLoop=1;jettySize=auto;html=1;exitX=1;exitY=0.5;exitDx=0;exitDy=0;endArrow=none;endFill=0;entryX=0;entryY=0.5;entryDx=0;entryDy=0;" edge="1" parent="1" source="dnKV-0oxVniuHY-d9d20-2" target="dnKV-0oxVniuHY-d9d20-26">
          <mxGeometry relative="1" as="geometry">
            <mxPoint x="250" y="420.0769230769231" as="targetPoint" />
          </mxGeometry>
        </mxCell>
        <mxCell id="dnKV-0oxVniuHY-d9d20-7" style="rounded=0;orthogonalLoop=1;jettySize=auto;html=1;exitX=1;exitY=0.25;exitDx=0;exitDy=0;entryX=0;entryY=0.5;entryDx=0;entryDy=0;endArrow=none;endFill=0;" edge="1" parent="1" source="dnKV-0oxVniuHY-d9d20-4" target="dnKV-0oxVniuHY-d9d20-6">
          <mxGeometry relative="1" as="geometry" />
        </mxCell>
        <mxCell id="dnKV-0oxVniuHY-d9d20-9" style="rounded=0;orthogonalLoop=1;jettySize=auto;html=1;exitX=1;exitY=0.75;exitDx=0;exitDy=0;entryX=-0.01;entryY=0.406;entryDx=0;entryDy=0;entryPerimeter=0;endArrow=none;endFill=0;" edge="1" parent="1" source="dnKV-0oxVniuHY-d9d20-4" target="dnKV-0oxVniuHY-d9d20-8">
          <mxGeometry relative="1" as="geometry" />
        </mxCell>
        <mxCell id="dnKV-0oxVniuHY-d9d20-11" style="rounded=0;orthogonalLoop=1;jettySize=auto;html=1;exitX=0.5;exitY=1;exitDx=0;exitDy=0;entryX=0.5;entryY=0;entryDx=0;entryDy=0;endArrow=none;endFill=0;" edge="1" parent="1" source="dnKV-0oxVniuHY-d9d20-4" target="dnKV-0oxVniuHY-d9d20-10">
          <mxGeometry relative="1" as="geometry" />
        </mxCell>
        <mxCell id="dnKV-0oxVniuHY-d9d20-4" value="Bank" style="rounded=0;whiteSpace=wrap;html=1;" vertex="1" parent="1">
          <mxGeometry x="670" y="270" width="120" height="60" as="geometry" />
        </mxCell>
        <mxCell id="dnKV-0oxVniuHY-d9d20-14" style="rounded=0;orthogonalLoop=1;jettySize=auto;html=1;exitX=0.5;exitY=1;exitDx=0;exitDy=0;entryX=0.692;entryY=-0.022;entryDx=0;entryDy=0;entryPerimeter=0;endArrow=none;endFill=0;" edge="1" parent="1" source="dnKV-0oxVniuHY-d9d20-5" target="dnKV-0oxVniuHY-d9d20-13">
          <mxGeometry relative="1" as="geometry" />
        </mxCell>
        <mxCell id="dnKV-0oxVniuHY-d9d20-16" style="rounded=0;orthogonalLoop=1;jettySize=auto;html=1;exitX=0.5;exitY=1;exitDx=0;exitDy=0;entryX=0.373;entryY=0.015;entryDx=0;entryDy=0;entryPerimeter=0;endArrow=none;endFill=0;" edge="1" parent="1" source="dnKV-0oxVniuHY-d9d20-5" target="dnKV-0oxVniuHY-d9d20-15">
          <mxGeometry relative="1" as="geometry" />
        </mxCell>
        <mxCell id="dnKV-0oxVniuHY-d9d20-18" style="rounded=0;orthogonalLoop=1;jettySize=auto;html=1;exitX=0.5;exitY=1;exitDx=0;exitDy=0;entryX=0;entryY=0;entryDx=0;entryDy=0;endArrow=none;endFill=0;" edge="1" parent="1" source="dnKV-0oxVniuHY-d9d20-5" target="dnKV-0oxVniuHY-d9d20-19">
          <mxGeometry relative="1" as="geometry">
            <mxPoint x="770" y="520" as="targetPoint" />
          </mxGeometry>
        </mxCell>
        <mxCell id="dnKV-0oxVniuHY-d9d20-45" style="rounded=0;orthogonalLoop=1;jettySize=auto;html=1;exitX=0.5;exitY=1;exitDx=0;exitDy=0;entryX=0.5;entryY=0;entryDx=0;entryDy=0;endArrow=none;endFill=0;" edge="1" parent="1" source="dnKV-0oxVniuHY-d9d20-5" target="dnKV-0oxVniuHY-d9d20-44">
          <mxGeometry relative="1" as="geometry" />
        </mxCell>
        <mxCell id="dnKV-0oxVniuHY-d9d20-5" value="BankAccount" style="rounded=0;whiteSpace=wrap;html=1;" vertex="1" parent="1">
          <mxGeometry x="510" y="400" width="120" height="60" as="geometry" />
        </mxCell>
        <mxCell id="dnKV-0oxVniuHY-d9d20-6" value="Name" style="ellipse;whiteSpace=wrap;html=1;" vertex="1" parent="1">
          <mxGeometry x="870" y="200" width="120" height="80" as="geometry" />
        </mxCell>
        <mxCell id="dnKV-0oxVniuHY-d9d20-8" value="ID" style="ellipse;whiteSpace=wrap;html=1;" vertex="1" parent="1">
          <mxGeometry x="880" y="310" width="120" height="80" as="geometry" />
        </mxCell>
        <mxCell id="dnKV-0oxVniuHY-d9d20-12" style="rounded=0;orthogonalLoop=1;jettySize=auto;html=1;exitX=0;exitY=0.5;exitDx=0;exitDy=0;entryX=1;entryY=0.5;entryDx=0;entryDy=0;endArrow=none;endFill=0;" edge="1" parent="1" source="dnKV-0oxVniuHY-d9d20-10" target="dnKV-0oxVniuHY-d9d20-5">
          <mxGeometry relative="1" as="geometry" />
        </mxCell>
        <mxCell id="dnKV-0oxVniuHY-d9d20-10" value="" style="rhombus;whiteSpace=wrap;html=1;" vertex="1" parent="1">
          <mxGeometry x="690" y="390" width="80" height="80" as="geometry" />
        </mxCell>
        <mxCell id="dnKV-0oxVniuHY-d9d20-13" value="Account Num" style="ellipse;whiteSpace=wrap;html=1;" vertex="1" parent="1">
          <mxGeometry x="390" y="540" width="120" height="80" as="geometry" />
        </mxCell>
        <mxCell id="dnKV-0oxVniuHY-d9d20-19" value="Balance" style="ellipse;whiteSpace=wrap;html=1;" vertex="1" parent="1">
          <mxGeometry x="750" y="540" width="120" height="80" as="geometry" />
        </mxCell>
        <mxCell id="dnKV-0oxVniuHY-d9d20-20" value="Bank Agent" style="swimlane;whiteSpace=wrap;html=1;" vertex="1" parent="1">
          <mxGeometry x="367" y="140" width="726" height="590" as="geometry" />
        </mxCell>
        <mxCell id="dnKV-0oxVniuHY-d9d20-41" value="1" style="text;html=1;strokeColor=none;fillColor=none;align=center;verticalAlign=middle;whiteSpace=wrap;rounded=0;" vertex="1" parent="dnKV-0oxVniuHY-d9d20-20">
          <mxGeometry x="63" y="260" width="60" height="30" as="geometry" />
        </mxCell>
        <mxCell id="dnKV-0oxVniuHY-d9d20-44" value="Password" style="ellipse;whiteSpace=wrap;html=1;" vertex="1" parent="dnKV-0oxVniuHY-d9d20-20">
          <mxGeometry x="313" y="490" width="120" height="80" as="geometry" />
        </mxCell>
        <mxCell id="dnKV-0oxVniuHY-d9d20-15" value="Account Name" style="ellipse;whiteSpace=wrap;html=1;" vertex="1" parent="dnKV-0oxVniuHY-d9d20-20">
          <mxGeometry x="153" y="460" width="120" height="80" as="geometry" />
        </mxCell>
        <mxCell id="dnKV-0oxVniuHY-d9d20-48" value="1" style="text;html=1;strokeColor=none;fillColor=none;align=center;verticalAlign=middle;whiteSpace=wrap;rounded=0;" vertex="1" parent="dnKV-0oxVniuHY-d9d20-20">
          <mxGeometry x="363" y="195" width="60" height="30" as="geometry" />
        </mxCell>
        <mxCell id="dnKV-0oxVniuHY-d9d20-49" value="n" style="text;html=1;strokeColor=none;fillColor=none;align=center;verticalAlign=middle;whiteSpace=wrap;rounded=0;" vertex="1" parent="dnKV-0oxVniuHY-d9d20-20">
          <mxGeometry x="263" y="260" width="60" height="30" as="geometry" />
        </mxCell>
        <mxCell id="dnKV-0oxVniuHY-d9d20-21" value="password" style="ellipse;whiteSpace=wrap;html=1;" vertex="1" parent="1">
          <mxGeometry x="-270" y="190" width="120" height="80" as="geometry" />
        </mxCell>
        <mxCell id="dnKV-0oxVniuHY-d9d20-27" style="rounded=0;orthogonalLoop=1;jettySize=auto;html=1;exitX=1;exitY=0.5;exitDx=0;exitDy=0;entryX=0;entryY=0.5;entryDx=0;entryDy=0;endArrow=none;endFill=0;" edge="1" parent="1" source="dnKV-0oxVniuHY-d9d20-26" target="dnKV-0oxVniuHY-d9d20-5">
          <mxGeometry relative="1" as="geometry" />
        </mxCell>
        <mxCell id="dnKV-0oxVniuHY-d9d20-26" value="" style="rhombus;whiteSpace=wrap;html=1;" vertex="1" parent="1">
          <mxGeometry x="200" y="360" width="80" height="80" as="geometry" />
        </mxCell>
        <mxCell id="dnKV-0oxVniuHY-d9d20-28" value="Our App" style="swimlane;whiteSpace=wrap;html=1;" vertex="1" parent="1">
          <mxGeometry x="-500" y="90" width="630" height="730" as="geometry" />
        </mxCell>
        <mxCell id="dnKV-0oxVniuHY-d9d20-36" style="edgeStyle=orthogonalEdgeStyle;rounded=0;orthogonalLoop=1;jettySize=auto;html=1;exitX=0;exitY=0.5;exitDx=0;exitDy=0;entryX=0.5;entryY=0;entryDx=0;entryDy=0;endArrow=none;endFill=0;" edge="1" parent="dnKV-0oxVniuHY-d9d20-28" source="dnKV-0oxVniuHY-d9d20-2" target="dnKV-0oxVniuHY-d9d20-35">
          <mxGeometry relative="1" as="geometry" />
        </mxCell>
        <mxCell id="dnKV-0oxVniuHY-d9d20-2" value="User" style="rounded=0;whiteSpace=wrap;html=1;" vertex="1" parent="dnKV-0oxVniuHY-d9d20-28">
          <mxGeometry x="350" y="260" width="120" height="60" as="geometry" />
        </mxCell>
        <mxCell id="dnKV-0oxVniuHY-d9d20-32" style="rounded=0;orthogonalLoop=1;jettySize=auto;html=1;exitX=0.25;exitY=1;exitDx=0;exitDy=0;entryX=1;entryY=0;entryDx=0;entryDy=0;endArrow=none;endFill=0;" edge="1" parent="dnKV-0oxVniuHY-d9d20-28" source="dnKV-0oxVniuHY-d9d20-3" target="dnKV-0oxVniuHY-d9d20-30">
          <mxGeometry relative="1" as="geometry" />
        </mxCell>
        <mxCell id="dnKV-0oxVniuHY-d9d20-33" style="rounded=0;orthogonalLoop=1;jettySize=auto;html=1;exitX=0.5;exitY=1;exitDx=0;exitDy=0;entryX=0.5;entryY=0;entryDx=0;entryDy=0;endArrow=none;endFill=0;" edge="1" parent="dnKV-0oxVniuHY-d9d20-28" source="dnKV-0oxVniuHY-d9d20-3" target="dnKV-0oxVniuHY-d9d20-29">
          <mxGeometry relative="1" as="geometry" />
        </mxCell>
        <mxCell id="dnKV-0oxVniuHY-d9d20-34" style="rounded=0;orthogonalLoop=1;jettySize=auto;html=1;exitX=0.5;exitY=1;exitDx=0;exitDy=0;entryX=0.5;entryY=0;entryDx=0;entryDy=0;endArrow=none;endFill=0;" edge="1" parent="dnKV-0oxVniuHY-d9d20-28" source="dnKV-0oxVniuHY-d9d20-3" target="dnKV-0oxVniuHY-d9d20-31">
          <mxGeometry relative="1" as="geometry" />
        </mxCell>
        <mxCell id="dnKV-0oxVniuHY-d9d20-43" style="rounded=0;orthogonalLoop=1;jettySize=auto;html=1;exitX=0.75;exitY=1;exitDx=0;exitDy=0;entryX=0;entryY=0;entryDx=0;entryDy=0;endArrow=none;endFill=0;" edge="1" parent="dnKV-0oxVniuHY-d9d20-28" source="dnKV-0oxVniuHY-d9d20-3" target="dnKV-0oxVniuHY-d9d20-42">
          <mxGeometry relative="1" as="geometry" />
        </mxCell>
        <mxCell id="dnKV-0oxVniuHY-d9d20-47" style="rounded=0;orthogonalLoop=1;jettySize=auto;html=1;exitX=1;exitY=0.75;exitDx=0;exitDy=0;endArrow=none;endFill=0;" edge="1" parent="dnKV-0oxVniuHY-d9d20-28" source="dnKV-0oxVniuHY-d9d20-3" target="dnKV-0oxVniuHY-d9d20-46">
          <mxGeometry relative="1" as="geometry" />
        </mxCell>
        <mxCell id="dnKV-0oxVniuHY-d9d20-3" value="Product" style="rounded=0;whiteSpace=wrap;html=1;" vertex="1" parent="dnKV-0oxVniuHY-d9d20-28">
          <mxGeometry x="240" y="480" width="120" height="60" as="geometry" />
        </mxCell>
        <mxCell id="dnKV-0oxVniuHY-d9d20-29" value="name" style="ellipse;whiteSpace=wrap;html=1;" vertex="1" parent="dnKV-0oxVniuHY-d9d20-28">
          <mxGeometry x="170" y="630" width="120" height="80" as="geometry" />
        </mxCell>
        <mxCell id="dnKV-0oxVniuHY-d9d20-30" value="price" style="ellipse;whiteSpace=wrap;html=1;" vertex="1" parent="dnKV-0oxVniuHY-d9d20-28">
          <mxGeometry x="27" y="630" width="120" height="80" as="geometry" />
        </mxCell>
        <mxCell id="dnKV-0oxVniuHY-d9d20-31" value="remain num" style="ellipse;whiteSpace=wrap;html=1;" vertex="1" parent="dnKV-0oxVniuHY-d9d20-28">
          <mxGeometry x="320" y="630" width="120" height="80" as="geometry" />
        </mxCell>
        <mxCell id="dnKV-0oxVniuHY-d9d20-37" style="edgeStyle=orthogonalEdgeStyle;rounded=0;orthogonalLoop=1;jettySize=auto;html=1;exitX=0.5;exitY=1;exitDx=0;exitDy=0;entryX=0;entryY=0.5;entryDx=0;entryDy=0;endArrow=none;endFill=0;" edge="1" parent="dnKV-0oxVniuHY-d9d20-28" source="dnKV-0oxVniuHY-d9d20-35" target="dnKV-0oxVniuHY-d9d20-3">
          <mxGeometry relative="1" as="geometry" />
        </mxCell>
        <mxCell id="dnKV-0oxVniuHY-d9d20-35" value="Buy" style="rhombus;whiteSpace=wrap;html=1;" vertex="1" parent="dnKV-0oxVniuHY-d9d20-28">
          <mxGeometry x="150" y="330" width="80" height="80" as="geometry" />
        </mxCell>
        <mxCell id="dnKV-0oxVniuHY-d9d20-38" value="n" style="text;html=1;strokeColor=none;fillColor=none;align=center;verticalAlign=middle;whiteSpace=wrap;rounded=0;" vertex="1" parent="dnKV-0oxVniuHY-d9d20-28">
          <mxGeometry x="270" y="260" width="60" height="30" as="geometry" />
        </mxCell>
        <mxCell id="dnKV-0oxVniuHY-d9d20-39" value="n" style="text;html=1;strokeColor=none;fillColor=none;align=center;verticalAlign=middle;whiteSpace=wrap;rounded=0;" vertex="1" parent="dnKV-0oxVniuHY-d9d20-28">
          <mxGeometry x="150" y="440" width="60" height="30" as="geometry" />
        </mxCell>
        <mxCell id="dnKV-0oxVniuHY-d9d20-40" value="1" style="text;html=1;strokeColor=none;fillColor=none;align=center;verticalAlign=middle;whiteSpace=wrap;rounded=0;" vertex="1" parent="dnKV-0oxVniuHY-d9d20-28">
          <mxGeometry x="500" y="260" width="60" height="30" as="geometry" />
        </mxCell>
        <mxCell id="dnKV-0oxVniuHY-d9d20-42" value="image path" style="ellipse;whiteSpace=wrap;html=1;" vertex="1" parent="dnKV-0oxVniuHY-d9d20-28">
          <mxGeometry x="480" y="630" width="120" height="80" as="geometry" />
        </mxCell>
        <mxCell id="dnKV-0oxVniuHY-d9d20-46" value="ID" style="ellipse;whiteSpace=wrap;html=1;" vertex="1" parent="dnKV-0oxVniuHY-d9d20-28">
          <mxGeometry x="470" y="540" width="120" height="80" as="geometry" />
        </mxCell>
      </root>
    </mxGraphModel>
  </diagram>
</mxfile>
